<svg width="1632" height="1024" viewBox="0 0 1632 1024" fill="none" xmlns="http://www.w3.org/2000/svg">
<g clip-path="url(#clip0)">
<rect width="1632" height="1024" fill="white"/>
<path d="M1963.17 1166.62L1572.54 1609.21C1540.93 1646.01 1492.87 1664.71 1442.33 1665.71L940.232 1670.78C885.38 1672.91 834.617 1647.48 809.317 1605.19L533.105 1190.42C512.537 1157.08 506.55 1117.89 518.848 1077.99L708.684 524.922C723.653 486.358 751.981 454.488 793.056 435.585L1289.85 197.536C1338.52 172.568 1396.04 171.777 1444.13 195.872L1871 416.325C1913.75 437.743 1940.69 477.563 1945.03 519.223L1999.87 1063.27C2004.83 1098.65 1989.86 1137.22 1963.17 1166.62Z" fill="#FFE074"/>
<path d="M1247.85 586.142L1148.16 1217.67C1140.77 1269.75 1103.85 1312.07 1052.16 1338.11L535.239 1592.03C479.855 1621.32 409.701 1621.32 354.317 1592.03L-217.989 1318.58C-262.296 1295.8 -295.527 1259.99 -310.296 1214.41L-494.911 573.121C-505.988 527.547 -498.603 481.973 -469.065 442.91L-118.297 -38.8731C-85.0662 -87.7024 -25.9895 -117 40.4717 -117L634.931 -110.489C694.007 -110.489 749.392 -84.4471 782.622 -45.3836L1214.62 465.697C1244.16 498.25 1255.24 543.824 1247.85 586.142Z" fill="#FFC1D0" fill-opacity="0.35"/>
</g>
<defs>
<clipPath id="clip0">
<rect width="1632" height="1024" fill="white"/>
</clipPath>
</defs>
</svg>
